<?xml version="1.0" encoding="utf-8"?>
<svg version="1.1" xmlns:xlink="http://www.w3.org/1999/xlink" width="9px" height="9px" xmlns="http://www.w3.org/2000/svg">
  <g transform="matrix(1 0 0 1 -419 -1878 )">
    <path d="M 423.5 1878  C 426.02 1878  428 1879.98  428 1882.5  C 428 1885.02  426.02 1887  423.5 1887  C 420.98 1887  419 1885.02  419 1882.5  C 419 1879.98  420.98 1878  423.5 1878  Z " fill-rule="nonzero" fill="#ffffff" stroke="none" />
    <path d="M 423.5 1878.5  C 425.74 1878.5  427.5 1880.26  427.5 1882.5  C 427.5 1884.74  425.74 1886.5  423.5 1886.5  C 421.26 1886.5  419.5 1884.74  419.5 1882.5  C 419.5 1880.26  421.26 1878.5  423.5 1878.5  Z " stroke-width="1" stroke="#797979" fill="none" />
  </g>
</svg>