<?xml version="1.0" encoding="utf-8"?>
<svg version="1.1" xmlns:xlink="http://www.w3.org/1999/xlink" width="150px" height="150px" xmlns="http://www.w3.org/2000/svg">
  <g transform="matrix(1 0 0 1 -891 -620 )">
    <path d="M 966 620  C 1008 620  1041 653  1041 695  C 1041 737  1008 770  966 770  C 924 770  891 737  891 695  C 891 653  924 620  966 620  Z " fill-rule="nonzero" fill="#ffffff" stroke="none" />
    <path d="M 966 620.5  C 1007.72 620.5  1040.5 653.28  1040.5 695  C 1040.5 736.72  1007.72 769.5  966 769.5  C 924.28 769.5  891.5 736.72  891.5 695  C 891.5 653.28  924.28 620.5  966 620.5  Z " stroke-width="1" stroke="#797979" fill="none" />
  </g>
</svg>