<?xml version="1.0" encoding="utf-8"?>
<svg version="1.1" xmlns:xlink="http://www.w3.org/1999/xlink" width="163px" height="30px" xmlns="http://www.w3.org/2000/svg">
  <g transform="matrix(1 0 0 1 -804 -691 )">
    <path d="M 805 696  A 4 4 0 0 1 809 692 L 962 692  A 4 4 0 0 1 966 696 L 966 716  A 4 4 0 0 1 962 720 L 809 720  A 4 4 0 0 1 805 716 L 805 696  Z " fill-rule="nonzero" fill="#e8f8fa" stroke="none" />
    <path d="M 804.5 696  A 4.5 4.5 0 0 1 809 691.5 L 962 691.5  A 4.5 4.5 0 0 1 966.5 696 L 966.5 716  A 4.5 4.5 0 0 1 962 720.5 L 809 720.5  A 4.5 4.5 0 0 1 804.5 716 L 804.5 696  Z " stroke-width="1" stroke="#15bdcf" fill="none" stroke-opacity="0.654901960784314" />
  </g>
</svg>