<?xml version="1.0" encoding="utf-8"?>
<svg version="1.1" xmlns:xlink="http://www.w3.org/1999/xlink" width="283px" height="30px" xmlns="http://www.w3.org/2000/svg">
  <g transform="matrix(1 0 0 1 -987 -731 )">
    <path d="M 988 736  A 4 4 0 0 1 992 732 L 1265 732  A 4 4 0 0 1 1269 736 L 1269 756  A 4 4 0 0 1 1265 760 L 992 760  A 4 4 0 0 1 988 756 L 988 736  Z " fill-rule="nonzero" fill="#e8f8fa" stroke="none" />
    <path d="M 987.5 736  A 4.5 4.5 0 0 1 992 731.5 L 1265 731.5  A 4.5 4.5 0 0 1 1269.5 736 L 1269.5 756  A 4.5 4.5 0 0 1 1265 760.5 L 992 760.5  A 4.5 4.5 0 0 1 987.5 756 L 987.5 736  Z " stroke-width="1" stroke="#15bdcf" fill="none" stroke-opacity="0.654901960784314" />
  </g>
</svg>