<?xml version="1.0" encoding="utf-8"?>
<svg version="1.1" xmlns:xlink="http://www.w3.org/1999/xlink" width="10px" height="10px" xmlns="http://www.w3.org/2000/svg">
  <g transform="matrix(1 0 0 1 -228 -283 )">
    <path d="M 9.76430976430977 7.47474747474747  C 9.92143658810325 7.63187429854096  10 7.82267115600449  10 8.04713804713806  C 10 8.2716049382716  9.92143658810325 8.46240179573512  9.76430976430977 8.61952861952863  L 8.61952861952862 9.76430976430977  C 8.46240179573512 9.92143658810326  8.27160493827161 10  8.04713804713806 10  C 7.82267115600449 10  7.63187429854095 9.92143658810326  7.47474747474749 9.76430976430977  L 5 7.28956228956229  L 2.52525252525251 9.76430976430977  C 2.36812570145905 9.92143658810326  2.17732884399551 10  1.95286195286194 10  C 1.72839506172839 10  1.53759820426488 9.92143658810326  1.38047138047138 9.76430976430977  L 0.235690235690228 8.61952861952863  C 0.0785634118967522 8.46240179573512  0 8.2716049382716  0 8.04713804713806  C 0 7.82267115600449  0.0785634118967522 7.63187429854096  0.235690235690228 7.47474747474747  L 2.71043771043772 5  L 0.235690235690228 2.52525252525253  C 0.0785634118967522 2.36812570145904  0 2.17732884399552  0 1.95286195286194  C 0 1.7283950617284  0.0785634118967522 1.53759820426488  0.235690235690228 1.38047138047137  L 1.38047138047138 0.235690235690242  C 1.53759820426488 0.0785634118967362  1.72839506172839 0  1.95286195286194 0  C 2.17732884399551 0  2.36812570145905 0.0785634118967362  2.52525252525251 0.235690235690242  L 5 2.71043771043771  L 7.47474747474749 0.235690235690242  C 7.63187429854095 0.0785634118967362  7.82267115600449 0  8.04713804713806 0  C 8.27160493827161 0  8.46240179573512 0.0785634118967362  8.61952861952862 0.235690235690242  L 9.76430976430977 1.38047138047137  C 9.92143658810325 1.53759820426488  10 1.7283950617284  10 1.95286195286194  C 10 2.17732884399552  9.92143658810325 2.36812570145904  9.76430976430977 2.52525252525253  L 7.28956228956228 5  L 9.76430976430977 7.47474747474747  Z " fill-rule="nonzero" fill="#15bdcf" stroke="none" transform="matrix(1 0 0 1 228 283 )" />
  </g>
</svg>