<?xml version="1.0" encoding="utf-8"?>
<svg version="1.1" xmlns:xlink="http://www.w3.org/1999/xlink" width="15px" height="15px" xmlns="http://www.w3.org/2000/svg">
  <g transform="matrix(1 0 0 1 -3 -3 )">
    <path d="M 10.5 3  C 14.7 3  18 6.3  18 10.5  C 18 14.7  14.7 18  10.5 18  C 6.3 18  3 14.7  3 10.5  C 3 6.3  6.3 3  10.5 3  Z " fill-rule="nonzero" fill="#ffffff" stroke="none" />
    <path d="M 10.5 3.5  C 14.42 3.5  17.5 6.58  17.5 10.5  C 17.5 14.42  14.42 17.5  10.5 17.5  C 6.58 17.5  3.5 14.42  3.5 10.5  C 3.5 6.58  6.58 3.5  10.5 3.5  Z " stroke-width="1" stroke="#ffffff" fill="none" />
  </g>
</svg>