<?xml version="1.0" encoding="utf-8"?>
<svg version="1.1" xmlns:xlink="http://www.w3.org/1999/xlink" width="226px" height="137px" xmlns="http://www.w3.org/2000/svg">
  <g transform="matrix(1 0 0 1 -21 -442 )">
    <path d="M 21 442  L 247 442  L 247 579  L 21 579  L 21 442  " fill-rule="nonzero" fill="#cccccc" stroke="none" />
    <path d="M 31 452  L 237 452  L 237 569  L 31 569  L 31 452  " fill-rule="nonzero" fill="#ffffff" stroke="none" />
    <path d="M 148.795 483.1  C 143.041 483.1  138.52 478.579  138.52 472.825  C 138.52 467.071  143.041 462.55  148.795 462.55  C 154.549 462.55  159.07 467.071  159.07 472.825  C 159.07 478.579  154.549 483.1  148.795 483.1  " fill-rule="nonzero" fill="#cccccc" stroke="none" />
    <path d="M 35 566  L 35 505.5  L 84.75 478  L 154.4 525.991150442478  L 194.2 494.5  L 234 525.991150442478  L 234 566  L 35 566  " fill-rule="nonzero" fill="#169bd5" stroke="none" />
  </g>
</svg>