<?xml version="1.0" encoding="utf-8"?>
<svg version="1.1" xmlns:xlink="http://www.w3.org/1999/xlink" width="246px" height="178px" xmlns="http://www.w3.org/2000/svg">
  <g transform="matrix(1 0 0 1 -21 -562 )">
    <path d="M 21 562  L 267 562  L 267 740  L 21 740  L 21 562  " fill-rule="nonzero" fill="#cccccc" stroke="none" />
    <path d="M 33 574  L 255 574  L 255 728  L 33 728  L 33 574  " fill-rule="nonzero" fill="#ffffff" stroke="none" />
    <path d="M 162.27 615.4  C 154.794 615.4  148.92 609.526  148.92 602.05  C 148.92 594.574  154.794 588.7  162.27 588.7  C 169.746 588.7  175.62 594.574  175.62 602.05  C 175.62 609.526  169.746 615.4  162.27 615.4  " fill-rule="nonzero" fill="#cccccc" stroke="none" />
    <path d="M 38 724  L 38 644.25  L 91.25 608  L 165.8 661.048780487805  L 208.4 629.75  L 251 661.048780487805  L 251 724  L 38 724  " fill-rule="nonzero" fill="#169bd5" stroke="none" />
  </g>
</svg>